<mxfile host="app.diagrams.net" modified="2022-11-18T07:07:27.864Z" agent="5.0 (Windows NT 10.0; Win64; x64) AppleWebKit/537.36 (KHTML, like Gecko) Chrome/107.0.0.0 Safari/537.36" etag="DTxBig76l2bHaw9YazDV" version="20.5.3" type="github" pages="4">
  <diagram id="uAzu-Drl-Yu9si6dqU-0" name="第 1 页">
    <mxGraphModel dx="1438" dy="547" grid="1" gridSize="10" guides="1" tooltips="1" connect="1" arrows="1" fold="1" page="0" pageScale="1" pageWidth="827" pageHeight="1169" math="0" shadow="0">
      <root>
        <mxCell id="0" />
        <mxCell id="1" parent="0" />
        <mxCell id="-5osqSNISesOadWC6FPo-1" value="&lt;div&gt;&lt;span style=&quot;font-family: 宋体;&quot;&gt;&lt;font style=&quot;font-size: 20px;&quot;&gt;基于机器学习的智能咨询系统设计与实现&lt;/font&gt;&lt;/span&gt;&lt;/div&gt;" style="rounded=0;whiteSpace=wrap;html=1;fillColor=#fff2cc;strokeColor=#d6b656;" parent="1" vertex="1">
          <mxGeometry x="110" y="20" width="370" height="60" as="geometry" />
        </mxCell>
        <mxCell id="hYYrIalPpaFLWgTzp6Dy-1" value="&lt;font style=&quot;font-size: 16px;&quot;&gt;第一阶段：用户每次只问一个问题时，能实现基本的问答功能&lt;/font&gt;" style="html=1;whiteSpace=wrap;container=1;recursiveResize=0;collapsible=0;fontSize=20;fillColor=#d5e8d4;strokeColor=#82b366;" parent="1" vertex="1">
          <mxGeometry x="-240" y="130" width="560" height="70" as="geometry" />
        </mxCell>
        <mxCell id="hYYrIalPpaFLWgTzp6Dy-2" value="" style="triangle;html=1;whiteSpace=wrap;fontSize=20;" parent="hYYrIalPpaFLWgTzp6Dy-1" vertex="1">
          <mxGeometry x="20" y="20" width="20" height="30" as="geometry" />
        </mxCell>
        <mxCell id="hYYrIalPpaFLWgTzp6Dy-3" value="需求：" style="ellipse;shape=cloud;whiteSpace=wrap;html=1;fontSize=16;" parent="1" vertex="1">
          <mxGeometry x="-240" y="290" width="120" height="80" as="geometry" />
        </mxCell>
        <mxCell id="hYYrIalPpaFLWgTzp6Dy-4" value="" style="shape=curlyBracket;whiteSpace=wrap;html=1;rounded=1;labelPosition=left;verticalLabelPosition=middle;align=right;verticalAlign=middle;fontSize=16;" parent="1" vertex="1">
          <mxGeometry x="-110" y="240" width="20" height="190" as="geometry" />
        </mxCell>
        <mxCell id="hYYrIalPpaFLWgTzp6Dy-8" value="&lt;div style=&quot;&quot;&gt;&lt;span style=&quot;background-color: rgb(255, 255, 204);&quot;&gt;&lt;span style=&quot;font-size: 10.45pt;&quot;&gt;1.常见问题引导：用户来访时直接列举热门问题，点击即可获取&lt;/span&gt;&lt;span style=&quot;font-size: 10.45pt;&quot;&gt;答案；&lt;/span&gt;&lt;/span&gt;&lt;/div&gt;" style="text;html=1;strokeColor=none;fillColor=none;align=left;verticalAlign=middle;whiteSpace=wrap;rounded=0;fontFamily=Helvetica;fontSize=16;" parent="1" vertex="1">
          <mxGeometry x="-80" y="220" width="440" height="50" as="geometry" />
        </mxCell>
        <mxCell id="hYYrIalPpaFLWgTzp6Dy-9" value="&lt;div&gt;&lt;span style=&quot;background-color: rgb(255, 255, 204);&quot;&gt;&lt;span style=&quot;font-size: 10.45pt;&quot;&gt;2.问题自动答复：用户输入问题时，根据文本相似度（例如对比 Jaccard 相似性）自动&lt;/span&gt;&lt;span style=&quot;font-size: 10.45pt;&quot;&gt;匹配相关问题的答复；&lt;/span&gt;&lt;/span&gt;&lt;/div&gt;" style="text;html=1;strokeColor=none;fillColor=none;align=left;verticalAlign=middle;whiteSpace=wrap;rounded=0;fontFamily=Helvetica;fontSize=16;" parent="1" vertex="1">
          <mxGeometry x="-80" y="280" width="690" height="40" as="geometry" />
        </mxCell>
        <mxCell id="hYYrIalPpaFLWgTzp6Dy-10" value="&lt;div style=&quot;&quot;&gt;&lt;span style=&quot;font-size: 10.45pt;&quot;&gt;&lt;span style=&quot;background-color: rgb(255, 255, 204);&quot;&gt;3.富文本支持：支持文本/图文/超链接等多种答复格式；&lt;/span&gt;&lt;br&gt;&lt;/span&gt;&lt;/div&gt;" style="text;html=1;strokeColor=none;fillColor=none;align=left;verticalAlign=middle;whiteSpace=wrap;rounded=0;fontFamily=Helvetica;fontSize=16;" parent="1" vertex="1">
          <mxGeometry x="-80" y="340" width="360" height="30" as="geometry" />
        </mxCell>
        <mxCell id="hYYrIalPpaFLWgTzp6Dy-11" value="&lt;div style=&quot;&quot;&gt;&lt;span style=&quot;background-color: rgb(255, 255, 204);&quot;&gt;&lt;span style=&quot;font-size: 10.45pt;&quot;&gt;4.问题补全：收集未&lt;/span&gt;&lt;span style=&quot;font-size: 10.45pt;&quot;&gt;知问题和未知问法，提交至后台人为设置答复。&lt;/span&gt;&lt;/span&gt;&lt;/div&gt;" style="text;html=1;strokeColor=none;fillColor=none;align=left;verticalAlign=middle;whiteSpace=wrap;rounded=0;fontFamily=Helvetica;fontSize=16;" parent="1" vertex="1">
          <mxGeometry x="-80" y="400" width="420" height="30" as="geometry" />
        </mxCell>
      </root>
    </mxGraphModel>
  </diagram>
  <diagram id="W8EgYUsVqFiFB-bkUpeZ" name="第 2 页">
    <mxGraphModel dx="1038" dy="547" grid="1" gridSize="10" guides="1" tooltips="1" connect="1" arrows="1" fold="1" page="0" pageScale="1" pageWidth="827" pageHeight="1169" math="0" shadow="0">
      <root>
        <mxCell id="0" />
        <mxCell id="1" parent="0" />
        <mxCell id="DgIMJLGIvdPtwlmF3EMC-1" value="&lt;p style=&quot;margin-right: 1.25pt; margin-left: 1.65pt; text-indent: 0.3pt;&quot; align=&quot;center&quot; class=&quot;MsoNormal&quot;&gt;&lt;span style=&quot;mso-spacerun:&#39;yes&#39;;font-family:&#39;Times New Roman&#39;;mso-ascii-font-family:Calibri;&lt;br/&gt;font-size:8.5000pt;&quot;&gt;用户问题&lt;/span&gt;&lt;span style=&quot;mso-spacerun:&#39;yes&#39;;font-family:Calibri;mso-fareast-font-family:&#39;Times New Roman&#39;;&lt;br/&gt;mso-hansi-font-family:&#39;Times New Roman&#39;;mso-bidi-font-family:&#39;Times New Roman&#39;;font-size:8.5000pt;&quot;&gt;&lt;/span&gt;&lt;/p&gt;" style="rounded=0;whiteSpace=wrap;html=1;" parent="1" vertex="1">
          <mxGeometry x="80" y="40" width="80" height="440" as="geometry" />
        </mxCell>
        <mxCell id="DgIMJLGIvdPtwlmF3EMC-2" value="" style="rounded=0;whiteSpace=wrap;html=1;" parent="1" vertex="1">
          <mxGeometry x="200" y="40" width="190" height="440" as="geometry" />
        </mxCell>
        <mxCell id="DgIMJLGIvdPtwlmF3EMC-3" value="问题类型分析" style="rounded=0;whiteSpace=wrap;html=1;" parent="1" vertex="1">
          <mxGeometry x="235" y="110" width="120" height="60" as="geometry" />
        </mxCell>
        <mxCell id="DgIMJLGIvdPtwlmF3EMC-4" value="停止词" style="rounded=0;whiteSpace=wrap;html=1;" parent="1" vertex="1">
          <mxGeometry x="235" y="200" width="120" height="60" as="geometry" />
        </mxCell>
        <mxCell id="DgIMJLGIvdPtwlmF3EMC-5" value="关键字提取" style="rounded=0;whiteSpace=wrap;html=1;" parent="1" vertex="1">
          <mxGeometry x="235" y="290" width="120" height="60" as="geometry" />
        </mxCell>
        <mxCell id="DgIMJLGIvdPtwlmF3EMC-6" value="同义词扩展" style="rounded=0;whiteSpace=wrap;html=1;" parent="1" vertex="1">
          <mxGeometry x="235" y="380" width="120" height="60" as="geometry" />
        </mxCell>
        <mxCell id="DgIMJLGIvdPtwlmF3EMC-7" value="" style="rounded=0;whiteSpace=wrap;html=1;" parent="1" vertex="1">
          <mxGeometry x="450" y="40" width="150" height="440" as="geometry" />
        </mxCell>
        <mxCell id="DgIMJLGIvdPtwlmF3EMC-8" value="常见问题集" style="rounded=0;whiteSpace=wrap;html=1;" parent="1" vertex="1">
          <mxGeometry x="470" y="140" width="120" height="80" as="geometry" />
        </mxCell>
        <mxCell id="DgIMJLGIvdPtwlmF3EMC-9" value="计算句子的相似度" style="rounded=0;whiteSpace=wrap;html=1;" parent="1" vertex="1">
          <mxGeometry x="470" y="310" width="120" height="80" as="geometry" />
        </mxCell>
        <mxCell id="DgIMJLGIvdPtwlmF3EMC-10" value="判断" style="rhombus;whiteSpace=wrap;html=1;" parent="1" vertex="1">
          <mxGeometry x="680" y="220" width="110" height="80" as="geometry" />
        </mxCell>
        <mxCell id="DgIMJLGIvdPtwlmF3EMC-11" value="" style="endArrow=classic;html=1;rounded=0;entryX=0;entryY=0.5;entryDx=0;entryDy=0;exitX=1;exitY=0.5;exitDx=0;exitDy=0;" parent="1" source="DgIMJLGIvdPtwlmF3EMC-2" target="DgIMJLGIvdPtwlmF3EMC-7" edge="1">
          <mxGeometry width="50" height="50" relative="1" as="geometry">
            <mxPoint x="410" y="310" as="sourcePoint" />
            <mxPoint x="460" y="260" as="targetPoint" />
          </mxGeometry>
        </mxCell>
        <mxCell id="DgIMJLGIvdPtwlmF3EMC-13" value="" style="endArrow=classic;html=1;rounded=0;exitX=1;exitY=0.5;exitDx=0;exitDy=0;entryX=0;entryY=0.5;entryDx=0;entryDy=0;" parent="1" source="DgIMJLGIvdPtwlmF3EMC-7" target="DgIMJLGIvdPtwlmF3EMC-10" edge="1">
          <mxGeometry width="50" height="50" relative="1" as="geometry">
            <mxPoint x="410" y="310" as="sourcePoint" />
            <mxPoint x="460" y="260" as="targetPoint" />
          </mxGeometry>
        </mxCell>
        <mxCell id="DgIMJLGIvdPtwlmF3EMC-14" value="" style="rounded=0;whiteSpace=wrap;html=1;" parent="1" vertex="1">
          <mxGeometry x="860" y="125" width="140" height="355" as="geometry" />
        </mxCell>
        <mxCell id="DgIMJLGIvdPtwlmF3EMC-15" value="相关文档提取" style="rounded=0;whiteSpace=wrap;html=1;" parent="1" vertex="1">
          <mxGeometry x="870" y="200" width="120" height="60" as="geometry" />
        </mxCell>
        <mxCell id="DgIMJLGIvdPtwlmF3EMC-16" value="形成候选问题集" style="rounded=0;whiteSpace=wrap;html=1;" parent="1" vertex="1">
          <mxGeometry x="870" y="290" width="120" height="60" as="geometry" />
        </mxCell>
        <mxCell id="DgIMJLGIvdPtwlmF3EMC-17" value="计算句子相似度" style="rounded=0;whiteSpace=wrap;html=1;" parent="1" vertex="1">
          <mxGeometry x="870" y="380" width="120" height="60" as="geometry" />
        </mxCell>
        <mxCell id="DgIMJLGIvdPtwlmF3EMC-18" value="提取答案" style="rounded=0;whiteSpace=wrap;html=1;" parent="1" vertex="1">
          <mxGeometry x="1050" y="40" width="80" height="440" as="geometry" />
        </mxCell>
        <mxCell id="DgIMJLGIvdPtwlmF3EMC-19" value="返回给用户" style="rounded=0;whiteSpace=wrap;html=1;" parent="1" vertex="1">
          <mxGeometry x="1190" y="40" width="80" height="440" as="geometry" />
        </mxCell>
        <mxCell id="DgIMJLGIvdPtwlmF3EMC-21" value="" style="edgeStyle=elbowEdgeStyle;elbow=vertical;endArrow=classic;html=1;rounded=0;exitX=0.5;exitY=1;exitDx=0;exitDy=0;entryX=0.5;entryY=1;entryDx=0;entryDy=0;" parent="1" source="DgIMJLGIvdPtwlmF3EMC-18" target="DgIMJLGIvdPtwlmF3EMC-7" edge="1">
          <mxGeometry width="50" height="50" relative="1" as="geometry">
            <mxPoint x="730" y="610" as="sourcePoint" />
            <mxPoint x="780" y="560" as="targetPoint" />
            <Array as="points">
              <mxPoint x="830" y="550" />
              <mxPoint x="570" y="590" />
            </Array>
          </mxGeometry>
        </mxCell>
        <mxCell id="DgIMJLGIvdPtwlmF3EMC-23" value="" style="edgeStyle=segmentEdgeStyle;endArrow=classic;html=1;rounded=0;exitX=0.5;exitY=0;exitDx=0;exitDy=0;" parent="1" source="DgIMJLGIvdPtwlmF3EMC-10" edge="1">
          <mxGeometry width="50" height="50" relative="1" as="geometry">
            <mxPoint x="740" y="150" as="sourcePoint" />
            <mxPoint x="1050" y="70" as="targetPoint" />
            <Array as="points">
              <mxPoint x="735" y="70" />
              <mxPoint x="1050" y="70" />
            </Array>
          </mxGeometry>
        </mxCell>
        <mxCell id="DgIMJLGIvdPtwlmF3EMC-25" value="" style="endArrow=none;html=1;rounded=0;entryX=0.5;entryY=1;entryDx=0;entryDy=0;" parent="1" target="DgIMJLGIvdPtwlmF3EMC-10" edge="1">
          <mxGeometry width="50" height="50" relative="1" as="geometry">
            <mxPoint x="735" y="390" as="sourcePoint" />
            <mxPoint x="670" y="260" as="targetPoint" />
          </mxGeometry>
        </mxCell>
        <mxCell id="DgIMJLGIvdPtwlmF3EMC-26" value="" style="endArrow=classic;html=1;rounded=0;entryX=-0.038;entryY=0.547;entryDx=0;entryDy=0;entryPerimeter=0;" parent="1" target="DgIMJLGIvdPtwlmF3EMC-18" edge="1">
          <mxGeometry width="50" height="50" relative="1" as="geometry">
            <mxPoint x="1000" y="281" as="sourcePoint" />
            <mxPoint x="670" y="260" as="targetPoint" />
          </mxGeometry>
        </mxCell>
        <mxCell id="DgIMJLGIvdPtwlmF3EMC-27" value="&lt;p style=&quot;margin-top:6.9500pt;margin-right:14.8000pt;text-indent:7.6500pt;&lt;br/&gt;mso-char-indent-count:1.0000;&quot; class=&quot;MsoNormal&quot;&gt;&lt;span style=&quot;mso-spacerun:&#39;yes&#39;;font-family:&#39;Times New Roman&#39;;mso-ascii-font-family:Calibri;&lt;br/&gt;font-size:8.5000pt;&quot;&gt;问题分析&lt;/span&gt;&lt;span style=&quot;mso-spacerun:&#39;yes&#39;;font-family:Calibri;mso-fareast-font-family:&#39;Times New Roman&#39;;&lt;br/&gt;mso-hansi-font-family:&#39;Times New Roman&#39;;mso-bidi-font-family:&#39;Times New Roman&#39;;font-size:8.5000pt;&quot;&gt;&lt;/span&gt;&lt;/p&gt;" style="text;html=1;strokeColor=none;fillColor=none;align=center;verticalAlign=middle;whiteSpace=wrap;rounded=0;" parent="1" vertex="1">
          <mxGeometry x="265" y="60" width="60" height="30" as="geometry" />
        </mxCell>
        <mxCell id="DgIMJLGIvdPtwlmF3EMC-28" value="FAQ" style="text;html=1;strokeColor=none;fillColor=none;align=center;verticalAlign=middle;whiteSpace=wrap;rounded=0;" parent="1" vertex="1">
          <mxGeometry x="500" y="80" width="60" height="30" as="geometry" />
        </mxCell>
        <mxCell id="DgIMJLGIvdPtwlmF3EMC-29" value="相似度&amp;lt;阈值" style="text;html=1;strokeColor=none;fillColor=none;align=center;verticalAlign=middle;whiteSpace=wrap;rounded=0;" parent="1" vertex="1">
          <mxGeometry x="767" y="370" width="73" height="30" as="geometry" />
        </mxCell>
        <mxCell id="DgIMJLGIvdPtwlmF3EMC-30" value="相似度≥阈值" style="text;html=1;strokeColor=none;fillColor=none;align=center;verticalAlign=middle;whiteSpace=wrap;rounded=0;" parent="1" vertex="1">
          <mxGeometry x="750" y="40" width="90" height="30" as="geometry" />
        </mxCell>
        <mxCell id="DgIMJLGIvdPtwlmF3EMC-31" value="文本库" style="text;html=1;strokeColor=none;fillColor=none;align=center;verticalAlign=middle;whiteSpace=wrap;rounded=0;" parent="1" vertex="1">
          <mxGeometry x="900" y="140" width="60" height="30" as="geometry" />
        </mxCell>
      </root>
    </mxGraphModel>
  </diagram>
  <diagram id="9sYQ5uIjAtBLn4LA-2yb" name="第 3 页">
    <mxGraphModel dx="1438" dy="547" grid="1" gridSize="10" guides="1" tooltips="1" connect="1" arrows="1" fold="1" page="0" pageScale="1" pageWidth="827" pageHeight="1169" math="0" shadow="0">
      <root>
        <mxCell id="0" />
        <mxCell id="1" parent="0" />
        <mxCell id="US5bS5K8E5_OeSQceMzX-1" value="训练语言库" style="shape=note;whiteSpace=wrap;html=1;backgroundOutline=1;darkOpacity=0.05;direction=south;" parent="1" vertex="1">
          <mxGeometry x="-240" y="20" width="190" height="80" as="geometry" />
        </mxCell>
        <mxCell id="US5bS5K8E5_OeSQceMzX-2" value="培训工具" style="rounded=0;whiteSpace=wrap;html=1;" parent="1" vertex="1">
          <mxGeometry x="-240" y="160" width="190" height="60" as="geometry" />
        </mxCell>
        <mxCell id="US5bS5K8E5_OeSQceMzX-3" value="同义词维护工具" style="rounded=1;whiteSpace=wrap;html=1;" parent="1" vertex="1">
          <mxGeometry x="60" y="40" width="150" height="60" as="geometry" />
        </mxCell>
        <mxCell id="US5bS5K8E5_OeSQceMzX-4" value="文本格式的同义词" style="shape=note;whiteSpace=wrap;html=1;backgroundOutline=1;darkOpacity=0.05;direction=south;" parent="1" vertex="1">
          <mxGeometry x="55" y="160" width="160" height="60" as="geometry" />
        </mxCell>
        <mxCell id="US5bS5K8E5_OeSQceMzX-5" value="同义词构建工具" style="rounded=0;whiteSpace=wrap;html=1;" parent="1" vertex="1">
          <mxGeometry x="45" y="270" width="180" height="60" as="geometry" />
        </mxCell>
        <mxCell id="US5bS5K8E5_OeSQceMzX-6" value="二进制格式的同义词" style="shape=note;whiteSpace=wrap;html=1;backgroundOutline=1;darkOpacity=0.05;direction=south;" parent="1" vertex="1">
          <mxGeometry x="50" y="380" width="170" height="60" as="geometry" />
        </mxCell>
        <mxCell id="US5bS5K8E5_OeSQceMzX-7" value="测试语言库" style="shape=note;whiteSpace=wrap;html=1;backgroundOutline=1;darkOpacity=0.05;direction=south;" parent="1" vertex="1">
          <mxGeometry x="380" y="160" width="170" height="60" as="geometry" />
        </mxCell>
        <mxCell id="US5bS5K8E5_OeSQceMzX-8" value="语言分割评估" style="rounded=1;whiteSpace=wrap;html=1;" parent="1" vertex="1">
          <mxGeometry x="370" y="270" width="170" height="60" as="geometry" />
        </mxCell>
        <mxCell id="US5bS5K8E5_OeSQceMzX-9" value="" style="rounded=1;whiteSpace=wrap;html=1;" parent="1" vertex="1">
          <mxGeometry x="30" y="520" width="530" height="140" as="geometry" />
        </mxCell>
        <mxCell id="US5bS5K8E5_OeSQceMzX-10" value="分割算法" style="rounded=0;whiteSpace=wrap;html=1;" parent="1" vertex="1">
          <mxGeometry x="320" y="580" width="190" height="60" as="geometry" />
        </mxCell>
        <mxCell id="US5bS5K8E5_OeSQceMzX-11" value="语言搜索模块" style="rounded=0;whiteSpace=wrap;html=1;" parent="1" vertex="1">
          <mxGeometry x="60" y="580" width="190" height="60" as="geometry" />
        </mxCell>
        <mxCell id="US5bS5K8E5_OeSQceMzX-12" value="" style="shape=flexArrow;endArrow=classic;html=1;rounded=0;entryX=0;entryY=0;entryDx=60;entryDy=100;entryPerimeter=0;exitX=0.171;exitY=0.004;exitDx=0;exitDy=0;exitPerimeter=0;" parent="1" source="US5bS5K8E5_OeSQceMzX-9" target="US5bS5K8E5_OeSQceMzX-6" edge="1">
          <mxGeometry width="50" height="50" relative="1" as="geometry">
            <mxPoint x="190" y="510" as="sourcePoint" />
            <mxPoint x="250" y="460" as="targetPoint" />
          </mxGeometry>
        </mxCell>
        <mxCell id="US5bS5K8E5_OeSQceMzX-13" value="" style="shape=flexArrow;endArrow=classic;html=1;rounded=0;entryX=0.803;entryY=-0.024;entryDx=0;entryDy=0;entryPerimeter=0;exitX=0.5;exitY=1;exitDx=0;exitDy=0;" parent="1" source="US5bS5K8E5_OeSQceMzX-8" target="US5bS5K8E5_OeSQceMzX-9" edge="1">
          <mxGeometry width="50" height="50" relative="1" as="geometry">
            <mxPoint x="400" y="460" as="sourcePoint" />
            <mxPoint x="450" y="410" as="targetPoint" />
          </mxGeometry>
        </mxCell>
        <mxCell id="US5bS5K8E5_OeSQceMzX-14" value="" style="shape=flexArrow;endArrow=classic;html=1;rounded=0;entryX=-0.017;entryY=0.581;entryDx=0;entryDy=0;entryPerimeter=0;" parent="1" target="US5bS5K8E5_OeSQceMzX-6" edge="1">
          <mxGeometry width="50" height="50" relative="1" as="geometry">
            <mxPoint x="120" y="330" as="sourcePoint" />
            <mxPoint x="220" y="420" as="targetPoint" />
          </mxGeometry>
        </mxCell>
        <mxCell id="US5bS5K8E5_OeSQceMzX-15" value="" style="shape=flexArrow;endArrow=classic;html=1;rounded=0;entryX=-0.017;entryY=0.581;entryDx=0;entryDy=0;entryPerimeter=0;" parent="1" edge="1">
          <mxGeometry width="50" height="50" relative="1" as="geometry">
            <mxPoint x="111" y="220" as="sourcePoint" />
            <mxPoint x="111.23000000000002" y="270" as="targetPoint" />
          </mxGeometry>
        </mxCell>
        <mxCell id="US5bS5K8E5_OeSQceMzX-16" value="" style="shape=flexArrow;endArrow=classic;html=1;rounded=0;exitX=0;exitY=0;exitDx=60;exitDy=100;exitPerimeter=0;" parent="1" source="US5bS5K8E5_OeSQceMzX-7" edge="1">
          <mxGeometry width="50" height="50" relative="1" as="geometry">
            <mxPoint x="120" y="231.01999999999998" as="sourcePoint" />
            <mxPoint x="450" y="270" as="targetPoint" />
          </mxGeometry>
        </mxCell>
        <mxCell id="US5bS5K8E5_OeSQceMzX-17" value="" style="shape=flexArrow;endArrow=classic;html=1;rounded=0;entryX=0;entryY=0.5;entryDx=0;entryDy=0;entryPerimeter=0;" parent="1" source="US5bS5K8E5_OeSQceMzX-3" target="US5bS5K8E5_OeSQceMzX-4" edge="1">
          <mxGeometry width="50" height="50" relative="1" as="geometry">
            <mxPoint x="460" y="230" as="sourcePoint" />
            <mxPoint x="460" y="280" as="targetPoint" />
          </mxGeometry>
        </mxCell>
        <mxCell id="US5bS5K8E5_OeSQceMzX-18" value="" style="shape=flexArrow;endArrow=classic;html=1;rounded=0;entryX=0;entryY=0.5;entryDx=0;entryDy=0;entryPerimeter=0;" parent="1" edge="1">
          <mxGeometry width="50" height="50" relative="1" as="geometry">
            <mxPoint x="-145.5" y="100" as="sourcePoint" />
            <mxPoint x="-145.5" y="160" as="targetPoint" />
          </mxGeometry>
        </mxCell>
        <mxCell id="US5bS5K8E5_OeSQceMzX-19" value="" style="shape=flexArrow;endArrow=classic;html=1;rounded=0;entryX=0.5;entryY=1;entryDx=0;entryDy=0;entryPerimeter=0;exitX=1;exitY=0.5;exitDx=0;exitDy=0;" parent="1" source="US5bS5K8E5_OeSQceMzX-2" target="US5bS5K8E5_OeSQceMzX-4" edge="1">
          <mxGeometry width="50" height="50" relative="1" as="geometry">
            <mxPoint x="170" y="270" as="sourcePoint" />
            <mxPoint x="220" y="220" as="targetPoint" />
          </mxGeometry>
        </mxCell>
        <mxCell id="US5bS5K8E5_OeSQceMzX-20" value="切片工具" style="text;html=1;strokeColor=none;fillColor=none;align=center;verticalAlign=middle;whiteSpace=wrap;rounded=0;" parent="1" vertex="1">
          <mxGeometry x="250" y="530" width="60" height="30" as="geometry" />
        </mxCell>
      </root>
    </mxGraphModel>
  </diagram>
  <diagram id="h_fiS0A1gEwOuDGgggPj" name="第 4 页">
    <mxGraphModel dx="1438" dy="547" grid="1" gridSize="10" guides="1" tooltips="1" connect="1" arrows="1" fold="1" page="0" pageScale="1" pageWidth="827" pageHeight="1169" math="0" shadow="0">
      <root>
        <mxCell id="0" />
        <mxCell id="1" parent="0" />
        <mxCell id="aGiw0zpKW11VSSU15rmR-1" value="用户" style="rounded=0;whiteSpace=wrap;html=1;" parent="1" vertex="1">
          <mxGeometry x="-210" y="30" width="100" height="360" as="geometry" />
        </mxCell>
        <mxCell id="aGiw0zpKW11VSSU15rmR-2" value="答案抽取" style="rounded=0;whiteSpace=wrap;html=1;" parent="1" vertex="1">
          <mxGeometry x="-40" y="310" width="470" height="80" as="geometry" />
        </mxCell>
        <mxCell id="aGiw0zpKW11VSSU15rmR-3" value="问题分析" style="rounded=0;whiteSpace=wrap;html=1;" parent="1" vertex="1">
          <mxGeometry x="-40" y="30" width="160" height="60" as="geometry" />
        </mxCell>
        <mxCell id="aGiw0zpKW11VSSU15rmR-4" value="信息检索" style="rounded=0;whiteSpace=wrap;html=1;" parent="1" vertex="1">
          <mxGeometry x="240" y="30" width="190" height="60" as="geometry" />
        </mxCell>
        <mxCell id="aGiw0zpKW11VSSU15rmR-5" value="文本分析" style="rounded=0;whiteSpace=wrap;html=1;" parent="1" vertex="1">
          <mxGeometry x="240" y="180" width="190" height="60" as="geometry" />
        </mxCell>
        <mxCell id="aGiw0zpKW11VSSU15rmR-6" value="" style="shape=document;whiteSpace=wrap;html=1;boundedLbl=1;" parent="1" vertex="1">
          <mxGeometry x="580" y="20" width="120" height="80" as="geometry" />
        </mxCell>
        <mxCell id="aGiw0zpKW11VSSU15rmR-7" value="" style="shape=document;whiteSpace=wrap;html=1;boundedLbl=1;" parent="1" vertex="1">
          <mxGeometry x="560" y="40" width="120" height="80" as="geometry" />
        </mxCell>
        <mxCell id="aGiw0zpKW11VSSU15rmR-8" value="知识库" style="shape=document;whiteSpace=wrap;html=1;boundedLbl=1;" parent="1" vertex="1">
          <mxGeometry x="540" y="60" width="120" height="80" as="geometry" />
        </mxCell>
        <mxCell id="aGiw0zpKW11VSSU15rmR-9" value="" style="endArrow=classic;html=1;rounded=0;entryX=1.008;entryY=0.943;entryDx=0;entryDy=0;entryPerimeter=0;exitX=0;exitY=0.75;exitDx=0;exitDy=0;" parent="1" source="aGiw0zpKW11VSSU15rmR-2" target="aGiw0zpKW11VSSU15rmR-1" edge="1">
          <mxGeometry width="50" height="50" relative="1" as="geometry">
            <mxPoint x="290" y="270" as="sourcePoint" />
            <mxPoint x="340" y="220" as="targetPoint" />
          </mxGeometry>
        </mxCell>
        <mxCell id="aGiw0zpKW11VSSU15rmR-10" value="" style="endArrow=classic;html=1;rounded=0;exitX=0.5;exitY=1;exitDx=0;exitDy=0;entryX=0.168;entryY=-0.008;entryDx=0;entryDy=0;entryPerimeter=0;" parent="1" source="aGiw0zpKW11VSSU15rmR-3" target="aGiw0zpKW11VSSU15rmR-2" edge="1">
          <mxGeometry width="50" height="50" relative="1" as="geometry">
            <mxPoint x="290" y="270" as="sourcePoint" />
            <mxPoint x="340" y="220" as="targetPoint" />
          </mxGeometry>
        </mxCell>
        <mxCell id="aGiw0zpKW11VSSU15rmR-11" value="" style="endArrow=classic;html=1;rounded=0;exitX=0.5;exitY=1;exitDx=0;exitDy=0;entryX=0.803;entryY=-0.008;entryDx=0;entryDy=0;entryPerimeter=0;" parent="1" source="aGiw0zpKW11VSSU15rmR-5" target="aGiw0zpKW11VSSU15rmR-2" edge="1">
          <mxGeometry width="50" height="50" relative="1" as="geometry">
            <mxPoint x="290" y="270" as="sourcePoint" />
            <mxPoint x="340" y="220" as="targetPoint" />
          </mxGeometry>
        </mxCell>
        <mxCell id="aGiw0zpKW11VSSU15rmR-12" value="" style="endArrow=classic;html=1;rounded=0;entryX=0.5;entryY=0;entryDx=0;entryDy=0;exitX=0.5;exitY=1;exitDx=0;exitDy=0;" parent="1" source="aGiw0zpKW11VSSU15rmR-4" target="aGiw0zpKW11VSSU15rmR-5" edge="1">
          <mxGeometry width="50" height="50" relative="1" as="geometry">
            <mxPoint x="290" y="270" as="sourcePoint" />
            <mxPoint x="340" y="220" as="targetPoint" />
          </mxGeometry>
        </mxCell>
        <mxCell id="aGiw0zpKW11VSSU15rmR-13" value="" style="endArrow=classic;html=1;rounded=0;entryX=0;entryY=0.5;entryDx=0;entryDy=0;exitX=1.008;exitY=0.089;exitDx=0;exitDy=0;exitPerimeter=0;" parent="1" source="aGiw0zpKW11VSSU15rmR-1" target="aGiw0zpKW11VSSU15rmR-3" edge="1">
          <mxGeometry width="50" height="50" relative="1" as="geometry">
            <mxPoint x="290" y="270" as="sourcePoint" />
            <mxPoint x="340" y="220" as="targetPoint" />
          </mxGeometry>
        </mxCell>
        <mxCell id="aGiw0zpKW11VSSU15rmR-14" value="" style="endArrow=classic;html=1;rounded=0;entryX=0;entryY=0.5;entryDx=0;entryDy=0;" parent="1" source="aGiw0zpKW11VSSU15rmR-3" target="aGiw0zpKW11VSSU15rmR-4" edge="1">
          <mxGeometry width="50" height="50" relative="1" as="geometry">
            <mxPoint x="290" y="270" as="sourcePoint" />
            <mxPoint x="340" y="220" as="targetPoint" />
          </mxGeometry>
        </mxCell>
        <mxCell id="aGiw0zpKW11VSSU15rmR-15" value="" style="endArrow=classic;startArrow=classic;html=1;rounded=0;entryX=0;entryY=0.25;entryDx=0;entryDy=0;" parent="1" target="aGiw0zpKW11VSSU15rmR-8" edge="1">
          <mxGeometry width="50" height="50" relative="1" as="geometry">
            <mxPoint x="430" y="80" as="sourcePoint" />
            <mxPoint x="340" y="220" as="targetPoint" />
          </mxGeometry>
        </mxCell>
        <mxCell id="aGiw0zpKW11VSSU15rmR-17" value="问题" style="text;html=1;strokeColor=none;fillColor=none;align=center;verticalAlign=middle;whiteSpace=wrap;rounded=0;" parent="1" vertex="1">
          <mxGeometry x="-110" y="60" width="60" height="30" as="geometry" />
        </mxCell>
        <mxCell id="aGiw0zpKW11VSSU15rmR-18" value="询问" style="text;html=1;strokeColor=none;fillColor=none;align=center;verticalAlign=middle;whiteSpace=wrap;rounded=0;" parent="1" vertex="1">
          <mxGeometry x="150" y="60" width="60" height="30" as="geometry" />
        </mxCell>
        <mxCell id="aGiw0zpKW11VSSU15rmR-19" value="问题类型&lt;br&gt;问题特征" style="text;html=1;strokeColor=none;fillColor=none;align=center;verticalAlign=middle;whiteSpace=wrap;rounded=0;" parent="1" vertex="1">
          <mxGeometry x="-20" y="160" width="60" height="30" as="geometry" />
        </mxCell>
        <mxCell id="aGiw0zpKW11VSSU15rmR-20" value="文本/句子" style="text;html=1;strokeColor=none;fillColor=none;align=center;verticalAlign=middle;whiteSpace=wrap;rounded=0;" parent="1" vertex="1">
          <mxGeometry x="270" y="110" width="60" height="30" as="geometry" />
        </mxCell>
        <mxCell id="aGiw0zpKW11VSSU15rmR-21" value="句子特征" style="text;html=1;align=center;verticalAlign=middle;resizable=0;points=[];autosize=1;strokeColor=none;fillColor=none;" parent="1" vertex="1">
          <mxGeometry x="265" y="255" width="70" height="30" as="geometry" />
        </mxCell>
      </root>
    </mxGraphModel>
  </diagram>
</mxfile>
